<svg width="32" height="32" viewBox="0 0 36 36" fill="none" xmlns="http://www.w3.org/2000/svg">
    <path d="M10.7834 0C4.82566 0 0 4.82572 0 10.7836V19.7997H7.1998V10.7836C7.1998 9.49263 7.85951 8.64151 8.25045 8.25056C8.64139 7.85962 9.49249 7.1999 10.7834 7.1999H19.7994V0H10.7834ZM28.7992 16.1998V25.2159C28.7992 26.5069 28.1436 27.358 27.7485 27.7489C27.3576 28.1399 26.5065 28.7996 25.2156 28.7996H16.1995V35.9995H25.2156C31.1693 35.9995 35.999 31.1738 35.999 25.2159V16.1998H28.7992Z"
          fill="currentColor"/>
    <path d="M35.9999 0H25.2002V10.7998H35.9999V0Z" fill="#8C00FF"/>
    <path d="M10.7997 25.2001H0V36H10.7997V25.2001Z" fill="#8C00FF"/>
</svg>
